<svg width="40" height="30" viewBox="0 0 40 30" fill="none" xmlns="http://www.w3.org/2000/svg">
<g clip-path="url(#clip0_2823_1214)">
<path d="M3.98768 29.2629H0.046875V8.72891H8.78744V24.4631C8.78744 27.1154 6.64003 29.2629 3.98768 29.2629Z" fill="#0F62FE"/>
<path d="M24.4745 29.2629H20.5279C17.8756 29.2629 15.7281 27.1155 15.7281 24.4632V11.4045C15.7281 9.93616 14.5383 8.74057 13.0642 8.74057H8.64746V0H13.0642C19.3613 0 24.4687 5.10737 24.4687 11.4045V29.2629H24.4745Z" fill="#0F62FE"/>
<path d="M39.9999 29.2629H36.0533C33.4009 29.2629 31.2535 27.1155 31.2535 24.4632V11.4045C31.2535 9.93616 30.0637 8.74057 28.5896 8.74057H24.1729V0H28.5896C34.8867 0 39.9941 5.10737 39.9941 11.4045V29.2629H39.9999Z" fill="#0F62FE"/>
<path d="M0 4.70691V2.03714C0 0.917005 0.911201 0 2.03134 0H4.89843L0 4.70691Z" fill="#0F62FE"/>
</g>
<defs>
<clipPath id="clip0_2823_1214">
<rect width="40" height="29.2629" fill="white"/>
</clipPath>
</defs>
</svg>
